<svg width="340" height="347" viewBox="0 0 340 347" fill="none" xmlns="http://www.w3.org/2000/svg">
<path fill-rule="evenodd" clip-rule="evenodd" d="M184 346.445V240.224L182.079 228.994C180.068 217.241 166.705 211.615 157.107 218.48L147.935 225.041L102.395 271.326L93.9096 262.702L139.449 216.417L145.905 207.095C152.66 197.34 147.124 183.759 135.561 181.715L124.511 179.762H0V167.566H124.511L135.561 165.614C147.124 163.57 152.66 149.988 145.905 140.233L139.45 130.911L93.7574 84.4712L102.243 75.8472L147.935 122.287L157.107 128.848C166.705 135.713 180.068 130.087 182.079 118.335L184 107.104V0.883301H196V107.104L197.921 118.335C199.932 130.087 213.295 135.713 222.893 128.848L232.065 122.287L277.757 75.8472L286.243 84.4712L240.55 130.911L234.095 140.233C227.34 149.988 232.876 163.57 244.439 165.614L255.489 167.566H340V179.762H255.489L244.439 181.715C232.876 183.759 227.34 197.34 234.095 207.095L240.551 216.417L286.09 262.702L277.605 271.326L232.065 225.042L222.893 218.48C213.295 211.615 199.932 217.241 197.921 228.994L196 240.224V346.445H184Z" fill="#ECE5FC"/>
</svg>
