<svg width="623" height="170" viewBox="0 0 623 170" fill="none" xmlns="http://www.w3.org/2000/svg">
<path d="M163.034 74.49H208.978V168.261H242.625V74.49H289.432V44.4907H163.034V74.49Z" fill="#8E66DE"/>
<path d="M152.16 44.2361H118.21V168.261H152.16V44.2361Z" fill="#8E66DE"/>
<path d="M0 44.2361V168.261H33.9508V44.2361H0Z" fill="#8E66DE"/>
<path d="M85.1448 44.2361L33.9508 168.261H68.9512L118.185 44.2361H85.1448Z" fill="#8E66DE"/>
<path d="M425.679 44.2361L391.986 125.878L358.293 44.2361H300.283V168.261H334.234V66.8744L374.486 168.261H409.486L449.738 66.8744V168.261H483.688V44.2361H425.679Z" fill="#8E66DE"/>
<path d="M135.173 0.00079758C131.892 0.0646404 128.703 1.08854 126.006 2.94399C123.309 4.79944 121.224 7.40378 120.014 10.4302C118.804 13.4566 118.521 16.7702 119.202 19.9551C119.883 23.1401 121.498 26.0546 123.843 28.3329C126.188 30.6109 129.158 32.1514 132.382 32.7604C135.606 33.3697 138.94 33.0208 141.965 31.7575C144.99 30.494 147.571 28.3723 149.385 25.6589C151.199 22.9454 152.164 19.761 152.16 16.5051C152.111 12.0827 150.294 7.86059 147.109 4.76604C143.924 1.67148 139.631 -0.0424104 135.173 0.00079758Z" fill="#8E66DE"/>
<path d="M590.088 107.988C589.645 127.061 576.766 139.862 558.076 139.862H557.376C547.318 139.676 539.036 136.459 533.412 130.603C527.787 124.746 524.894 116.089 525.08 105.812C524.863 101.528 525.563 97.2471 527.135 93.2518C528.709 89.2567 531.119 85.6385 534.208 82.6363C537.296 79.6343 540.989 77.3168 545.048 75.8369C549.107 74.3574 553.436 73.7491 557.75 74.053C562.047 73.9027 566.334 74.6213 570.345 76.1651C574.356 77.709 578.01 80.0461 581.082 83.0344C584.192 86.3961 586.591 90.3429 588.134 94.6413C589.677 98.9397 590.335 103.502 590.067 108.057L590.088 107.988ZM592.726 52.9192C582.334 46.9618 570.52 43.8764 558.519 43.9841C555.401 43.9915 552.283 44.1694 549.184 44.5164C530.96 46.5073 516.307 54.0533 505.621 66.9466C495.586 79.0528 491.246 93.8211 492.368 112.038C492.787 124.654 497.333 136.793 505.319 146.621C518.15 162.176 535.653 169.606 560.642 170H561.202L564.446 169.583C568.802 169.101 573.121 168.328 577.373 167.268C590.12 164.109 601.509 156.968 609.852 146.899C617.973 136.744 622.556 124.253 622.92 111.298C624.017 84.7471 613.866 65.0023 592.75 52.9192" fill="#8E66DE"/>
</svg>
