<svg width="131" height="21" viewBox="0 0 131 21" fill="none" xmlns="http://www.w3.org/2000/svg">
<path d="M3.02246 8.67969V7.07324C1.41113 7.03906 0.351562 6.04785 0.351562 4.4707V4.46094C0.351562 2.88379 1.41602 1.89258 3.02246 1.8584V0.217773H3.64746V1.8584C5.24902 1.89258 6.30859 2.88379 6.30859 4.46094V4.4707C6.30859 6.04297 5.24414 7.04395 3.64746 7.07324V8.67969H3.02246ZM3.02246 6.51172V2.41992C1.79688 2.44922 1.00098 3.21582 1.00098 4.46094V4.4707C1.00098 5.71582 1.79688 6.47754 3.02246 6.51172ZM3.64746 6.51172C4.86816 6.48242 5.65918 5.7207 5.65918 4.4707V4.46094C5.65918 3.21582 4.86816 2.4541 3.64746 2.41992V6.51172ZM8.75 7.09277C7.74902 7.09277 7.06543 6.49219 7.06543 5.59375V5.58398C7.06543 4.71973 7.71973 4.19727 8.88672 4.11914L10.4688 4.02148V3.58203C10.4688 2.84961 10.0049 2.40527 9.21387 2.40527C8.47656 2.40527 7.99316 2.76172 7.88574 3.33789L7.87598 3.38672H7.25098L7.25586 3.32812C7.35352 2.4541 8.07617 1.8291 9.22363 1.8291C10.3857 1.8291 11.1133 2.4834 11.1133 3.52344V7H10.4688V6.07227H10.4492C10.1709 6.67773 9.50195 7.09277 8.75 7.09277ZM7.72461 5.59375C7.72461 6.15039 8.19336 6.52637 8.88184 6.52637C9.77051 6.52637 10.4688 5.90137 10.4688 5.09082V4.5293L8.96484 4.63184C8.16895 4.68066 7.72461 5.02734 7.72461 5.58398V5.59375ZM13.1201 4.59277H12.9395V7H12.29V1.92188H12.9395V4.13379H13.1201L15.3662 1.92188H16.167L13.7012 4.33887L16.2646 7H15.4297L13.1201 4.59277ZM17.2607 8.70898C17.1338 8.70898 16.9971 8.69434 16.9043 8.67969V8.14746C16.9678 8.15723 17.0508 8.16699 17.1338 8.16699C17.7051 8.16699 18.0029 7.98145 18.2275 7.36133L18.3496 7.03418L16.4404 1.92188H17.1338L18.6719 6.35547H18.6914L20.2344 1.92188H20.918L18.8818 7.40527C18.5449 8.30859 18.1299 8.70898 17.2607 8.70898ZM22.5781 4.8125C22.4805 6.12598 22.1973 7.04883 21.2109 7.04883C21.0742 7.04883 20.9521 7.02441 20.8838 7V6.41406C20.9375 6.43359 21.0303 6.45312 21.1523 6.45312C21.7041 6.45312 21.8945 5.77441 21.9629 4.79297L22.1631 1.92188H25.5811V7H24.9365V2.46387H22.749L22.5781 4.8125ZM26.792 7V1.92188H27.4414V3.64551H28.5352C29.6533 3.64551 30.376 4.29004 30.376 5.31543V5.3252C30.376 6.35059 29.6533 7 28.5352 7H26.792ZM28.5254 4.1875H27.4414V6.45801H28.5254C29.2578 6.45801 29.7168 6.00879 29.7168 5.3252V5.31543C29.7168 4.63184 29.2529 4.1875 28.5254 4.1875ZM34.5117 1.92188V2.46387H32.7832V7H32.1387V2.46387H30.415V1.92188H34.5117ZM37.2119 7.09277C35.7861 7.09277 34.9023 6.08203 34.9023 4.47559V4.4707C34.9023 2.87891 35.8008 1.8291 37.1582 1.8291C38.5156 1.8291 39.3701 2.84473 39.3701 4.36328V4.61719H35.5566C35.5762 5.82812 36.2256 6.5166 37.2266 6.5166C37.9736 6.5166 38.4912 6.14062 38.6572 5.58887L38.667 5.54492H39.3066L39.2969 5.59375C39.1211 6.46289 38.3105 7.09277 37.2119 7.09277ZM37.1533 2.40527C36.2891 2.40527 35.6445 3.02539 35.5664 4.10449H38.7207C38.6475 2.99609 38.0225 2.40527 37.1533 2.40527ZM43.8477 1.92188V2.46387H42.1191V7H41.4746V2.46387H39.751V1.92188H43.8477ZM48.7549 7.09277C47.3438 7.09277 46.4453 6.07227 46.4453 4.45605V4.45117C46.4453 2.85449 47.3584 1.8291 48.75 1.8291C49.9316 1.8291 50.6982 2.5957 50.8252 3.46973L50.8301 3.51367H50.1953L50.1855 3.47461C50.0439 2.87891 49.541 2.40527 48.75 2.40527C47.7588 2.40527 47.1094 3.20117 47.1094 4.46094V4.46582C47.1094 5.74512 47.7686 6.5166 48.7549 6.5166C49.5117 6.5166 50.0342 6.08203 50.1855 5.44727L50.1953 5.4082H50.835L50.8301 5.44727C50.6787 6.39453 49.8633 7.09277 48.7549 7.09277ZM51.7334 7V1.92188H52.3828V6.00391H52.417L55.2344 1.92188H55.874V7H55.2246V2.92285H55.1953L52.373 7H51.7334ZM59.1357 7.09277C57.7246 7.09277 56.8262 6.07227 56.8262 4.45605V4.45117C56.8262 2.85449 57.7393 1.8291 59.1309 1.8291C60.3125 1.8291 61.0791 2.5957 61.2061 3.46973L61.2109 3.51367H60.5762L60.5664 3.47461C60.4248 2.87891 59.9219 2.40527 59.1309 2.40527C58.1396 2.40527 57.4902 3.20117 57.4902 4.46094V4.46582C57.4902 5.74512 58.1494 6.5166 59.1357 6.5166C59.8926 6.5166 60.415 6.08203 60.5664 5.44727L60.5762 5.4082H61.2158L61.2109 5.44727C61.0596 6.39453 60.2441 7.09277 59.1357 7.09277ZM65.6445 1.92188V2.46387H63.916V7H63.2715V2.46387H61.5479V1.92188H65.6445ZM68.3447 7.09277C66.9189 7.09277 66.0352 6.08203 66.0352 4.47559V4.4707C66.0352 2.87891 66.9336 1.8291 68.291 1.8291C69.6484 1.8291 70.5029 2.84473 70.5029 4.36328V4.61719H66.6895C66.709 5.82812 67.3584 6.5166 68.3594 6.5166C69.1064 6.5166 69.624 6.14062 69.79 5.58887L69.7998 5.54492H70.4395L70.4297 5.59375C70.2539 6.46289 69.4434 7.09277 68.3447 7.09277ZM68.2861 2.40527C67.4219 2.40527 66.7773 3.02539 66.6992 4.10449H69.8535C69.7803 2.99609 69.1553 2.40527 68.2861 2.40527ZM72.1094 7H71.46V1.92188H72.2461L74.2188 6.15039H74.2529L76.2305 1.92188H76.9824V7H76.3379V3.06445H76.3086L74.4727 6.89746H73.9697L72.1338 3.06445H72.1094V7ZM80.5908 8.70898C80.4639 8.70898 80.3271 8.69434 80.2344 8.67969V8.14746C80.2979 8.15723 80.3809 8.16699 80.4639 8.16699C81.0352 8.16699 81.333 7.98145 81.5576 7.36133L81.6797 7.03418L79.7705 1.92188H80.4639L82.002 6.35547H82.0215L83.5645 1.92188H84.248L82.2119 7.40527C81.875 8.30859 81.46 8.70898 80.5908 8.70898ZM84.9854 7V1.92188H89.0137V7H88.3643V2.46387H85.6348V7H84.9854ZM90.2246 8.70898V1.92188H90.8691V2.99609H90.8887C91.1719 2.30762 91.7969 1.8291 92.6123 1.8291C93.9014 1.8291 94.7656 2.87402 94.7656 4.46094V4.46582C94.7656 6.05762 93.8965 7.09277 92.6221 7.09277C91.8115 7.09277 91.167 6.61914 90.8887 5.94043H90.8691V8.70898H90.2246ZM92.5 6.5166C93.4766 6.5166 94.1064 5.71094 94.1064 4.46582V4.46094C94.1064 3.20605 93.4766 2.40527 92.5 2.40527C91.543 2.40527 90.8691 3.23047 90.8691 4.46094V4.46582C90.8691 5.69141 91.5479 6.5166 92.5 6.5166ZM97.2168 7.09277C96.2158 7.09277 95.5322 6.49219 95.5322 5.59375V5.58398C95.5322 4.71973 96.1865 4.19727 97.3535 4.11914L98.9355 4.02148V3.58203C98.9355 2.84961 98.4717 2.40527 97.6807 2.40527C96.9434 2.40527 96.46 2.76172 96.3525 3.33789L96.3428 3.38672H95.7178L95.7227 3.32812C95.8203 2.4541 96.543 1.8291 97.6904 1.8291C98.8525 1.8291 99.5801 2.4834 99.5801 3.52344V7H98.9355V6.07227H98.916C98.6377 6.67773 97.9688 7.09277 97.2168 7.09277ZM96.1914 5.59375C96.1914 6.15039 96.6602 6.52637 97.3486 6.52637C98.2373 6.52637 98.9355 5.90137 98.9355 5.09082V4.5293L97.4316 4.63184C96.6357 4.68066 96.1914 5.02734 96.1914 5.58398V5.59375ZM100.757 7V1.92188H102.808C103.76 1.92188 104.341 2.41504 104.341 3.20605V3.21582C104.341 3.77246 103.97 4.24609 103.452 4.34863V4.37793C104.106 4.45605 104.585 4.89062 104.585 5.55469V5.56445C104.585 6.46777 103.926 7 102.832 7H100.757ZM101.406 4.12402H102.627C103.325 4.12402 103.701 3.82617 103.701 3.27441V3.26465C103.701 2.75195 103.35 2.46387 102.725 2.46387H101.406V4.12402ZM101.406 6.45801H102.778C103.525 6.45801 103.926 6.15039 103.926 5.5498V5.54004C103.926 4.9541 103.477 4.66602 102.661 4.66602H101.406V6.45801ZM106.67 4.8125C106.572 6.12598 106.289 7.04883 105.303 7.04883C105.166 7.04883 105.044 7.02441 104.976 7V6.41406C105.029 6.43359 105.122 6.45312 105.244 6.45312C105.796 6.45312 105.986 5.77441 106.055 4.79297L106.255 1.92188H109.673V7H109.028V2.46387H106.841L106.67 4.8125ZM112.944 7.09277C111.519 7.09277 110.635 6.08203 110.635 4.47559V4.4707C110.635 2.87891 111.533 1.8291 112.891 1.8291C114.248 1.8291 115.103 2.84473 115.103 4.36328V4.61719H111.289C111.309 5.82812 111.958 6.5166 112.959 6.5166C113.706 6.5166 114.224 6.14062 114.39 5.58887L114.399 5.54492H115.039L115.029 5.59375C114.854 6.46289 114.043 7.09277 112.944 7.09277ZM112.886 2.40527C112.021 2.40527 111.377 3.02539 111.299 4.10449H114.453C114.38 2.99609 113.755 2.40527 112.886 2.40527ZM119.487 7V4.6416H116.709V7H116.06V1.92188H116.709V4.09961H119.487V1.92188H120.132V7H119.487ZM121.343 7V1.92188H121.992V6.00391H122.026L124.844 1.92188H125.483V7H124.834V2.92285H124.805L121.982 7H121.343ZM129.58 7V5.09082H128.491L127.085 7H126.333L127.832 4.9834C127.017 4.82227 126.548 4.29004 126.548 3.54785V3.53809C126.548 2.54199 127.271 1.92188 128.394 1.92188H130.225V7H129.58ZM128.398 4.54883H129.58V2.46387H128.398C127.661 2.46387 127.207 2.86914 127.207 3.52832V3.53809C127.207 4.13867 127.666 4.54883 128.398 4.54883ZM0.600586 19V13.9219H1.25V18.0039H1.28418L4.10156 13.9219H4.74121V19H4.0918V14.9229H4.0625L1.24023 19H0.600586ZM7.99805 20.709V13.9219H8.64258V14.9961H8.66211C8.94531 14.3076 9.57031 13.8291 10.3857 13.8291C11.6748 13.8291 12.5391 14.874 12.5391 16.4609V16.4658C12.5391 18.0576 11.6699 19.0928 10.3955 19.0928C9.58496 19.0928 8.94043 18.6191 8.66211 17.9404H8.64258V20.709H7.99805ZM10.2734 18.5166C11.25 18.5166 11.8799 17.7109 11.8799 16.4658V16.4609C11.8799 15.2061 11.25 14.4053 10.2734 14.4053C9.31641 14.4053 8.64258 15.2305 8.64258 16.4609V16.4658C8.64258 17.6914 9.32129 18.5166 10.2734 18.5166ZM15.5664 19.0928C14.1797 19.0879 13.252 18.0723 13.252 16.4609V16.4512C13.252 14.8398 14.1846 13.8291 15.5664 13.8291C16.9434 13.8291 17.8809 14.835 17.8809 16.4512V16.4609C17.8809 18.0771 16.9482 19.0928 15.5664 19.0928ZM15.5713 18.5166C16.5625 18.5166 17.2217 17.7451 17.2217 16.4609V16.4512C17.2217 15.167 16.5576 14.4053 15.5664 14.4053C14.5752 14.4053 13.916 15.1719 13.916 16.4512V16.4609C13.916 17.75 14.5703 18.5117 15.5713 18.5166ZM20.9668 19.0928C19.458 19.0928 18.6377 18.0479 18.6377 16.0996V16.0898C18.6377 13.1748 19.3457 12.0518 21.3086 11.9883L21.7725 11.9736C22.2559 11.959 22.7148 11.8613 22.9639 11.7344V12.3008C22.8076 12.4229 22.3535 12.5352 21.8066 12.5547L21.3281 12.5693C19.873 12.6182 19.3994 13.2725 19.1992 15.001L19.1943 15.0693H19.209C19.5361 14.376 20.2051 13.9902 21.0596 13.9902C22.4219 13.9902 23.3008 14.9717 23.3008 16.4951V16.5049C23.3008 18.0918 22.4023 19.0928 20.9668 19.0928ZM20.9668 18.5166C22.0068 18.5166 22.6367 17.7598 22.6367 16.5049V16.4951C22.6367 15.2891 22.0068 14.5664 20.9668 14.5664C19.9268 14.5664 19.2969 15.2891 19.2969 16.4951V16.5049C19.2969 17.7598 19.9268 18.5166 20.9668 18.5166ZM26.3184 19.0928C24.9316 19.0879 24.0039 18.0723 24.0039 16.4609V16.4512C24.0039 14.8398 24.9365 13.8291 26.3184 13.8291C27.6953 13.8291 28.6328 14.835 28.6328 16.4512V16.4609C28.6328 18.0771 27.7002 19.0928 26.3184 19.0928ZM26.3232 18.5166C27.3145 18.5166 27.9736 17.7451 27.9736 16.4609V16.4512C27.9736 15.167 27.3096 14.4053 26.3184 14.4053C25.3271 14.4053 24.668 15.1719 24.668 16.4512V16.4609C24.668 17.75 25.3223 18.5117 26.3232 18.5166ZM33.0469 13.9219V14.4639H31.3184V19H30.6738V14.4639H28.9502V13.9219H33.0469ZM35.752 19.0928C34.3652 19.0879 33.4375 18.0723 33.4375 16.4609V16.4512C33.4375 14.8398 34.3701 13.8291 35.752 13.8291C37.1289 13.8291 38.0664 14.835 38.0664 16.4512V16.4609C38.0664 18.0771 37.1338 19.0928 35.752 19.0928ZM35.7568 18.5166C36.748 18.5166 37.4072 17.7451 37.4072 16.4609V16.4512C37.4072 15.167 36.7432 14.4053 35.752 14.4053C34.7607 14.4053 34.1016 15.1719 34.1016 16.4512V16.4609C34.1016 17.75 34.7559 18.5117 35.7568 18.5166ZM42.4805 13.9219V14.4639H40.752V19H40.1074V14.4639H38.3838V13.9219H42.4805ZM45.1807 19.0928C43.7549 19.0928 42.8711 18.082 42.8711 16.4756V16.4707C42.8711 14.8789 43.7695 13.8291 45.127 13.8291C46.4844 13.8291 47.3389 14.8447 47.3389 16.3633V16.6172H43.5254C43.5449 17.8281 44.1943 18.5166 45.1953 18.5166C45.9424 18.5166 46.46 18.1406 46.626 17.5889L46.6357 17.5449H47.2754L47.2656 17.5938C47.0898 18.4629 46.2793 19.0928 45.1807 19.0928ZM45.1221 14.4053C44.2578 14.4053 43.6133 15.0254 43.5352 16.1045H46.6895C46.6162 14.9961 45.9912 14.4053 45.1221 14.4053ZM47.7832 19L49.5703 16.4463L47.8027 13.9219H48.5352L49.9268 15.958H49.9463L51.3281 13.9219H52.0605L50.2832 16.4219L52.041 19H51.3135L49.9219 16.915H49.9072L48.5107 19H47.7832ZM56.2451 19V16.6416H53.4668V19H52.8174V13.9219H53.4668V16.0996H56.2451V13.9219H56.8896V19H56.2451ZM58.1006 19V13.9219H58.75V18.0039H58.7842L61.6016 13.9219H62.2412V19H61.5918V14.9229H61.5625L58.7402 19H58.1006ZM64.2725 16.5928H64.0918V19H63.4424V13.9219H64.0918V16.1338H64.2725L66.5186 13.9219H67.3193L64.8535 16.3389L67.417 19H66.582L64.2725 16.5928ZM68.1299 19V13.9219H68.7793V18.0039H68.8135L71.6309 13.9219H72.2705V19H71.6211V14.9229H71.5918L68.7695 19H68.1299Z" fill="#0B0B0C"/>
</svg>
