<svg width="90" height="32" viewBox="0 0 90 32" fill="none" xmlns="http://www.w3.org/2000/svg">
<path d="M23.5808 11.5538H30.1897V24.8394H35.0298V11.5538H41.7629V7.30349H23.5808V11.5538Z" fill="#0B0B0C"/>
<path d="M22.0167 7.26741H17.133V24.8394H22.0167V7.26741Z" fill="#0B0B0C"/>
<path d="M0.128906 7.26741V24.8394H5.01263V7.26741H0.128906Z" fill="#0B0B0C"/>
<path d="M12.3767 7.26741L5.01263 24.8394H10.0473L17.1295 7.26741H12.3767Z" fill="#0B0B0C"/>
<path d="M61.3615 7.26741L56.5149 18.8345L51.6682 7.26741H43.3238V24.8394H48.2074V10.4748L53.9975 24.8394H59.0322L64.8223 10.4748V24.8394H69.706V7.26741H61.3615Z" fill="#0B0B0C"/>
<path d="M19.5732 1.00011C19.1012 1.00916 18.6424 1.15423 18.2544 1.41711C17.8665 1.67999 17.5667 2.04897 17.3925 2.47776C17.2185 2.90654 17.1778 3.37601 17.2758 3.82726C17.3738 4.27851 17.606 4.69144 17.9433 5.01423C18.2806 5.33699 18.708 5.55524 19.1717 5.64153C19.6355 5.72785 20.115 5.67843 20.5501 5.49944C20.9853 5.32041 21.3566 5.01981 21.6175 4.63538C21.8784 4.25093 22.0173 3.79975 22.0167 3.33846C22.0097 2.7119 21.7483 2.1137 21.2902 1.67526C20.832 1.23682 20.2145 0.993991 19.5732 1.00011Z" fill="#0B0B0C"/>
<path d="M85.0113 16.2998C84.9476 19.0021 83.095 20.8158 80.4064 20.8158H80.3057C78.8589 20.7895 77.6675 20.3337 76.8587 19.5039C76.0494 18.6742 75.6334 17.4476 75.6601 15.9915C75.6288 15.3846 75.7295 14.7781 75.9556 14.212C76.1821 13.646 76.5288 13.1334 76.9731 12.708C77.4174 12.2827 77.9486 11.9543 78.5324 11.7447C79.1163 11.535 79.739 11.4489 80.3595 11.4919C80.9777 11.4706 81.5943 11.5724 82.1713 11.7912C82.7483 12.0099 83.2738 12.341 83.7158 12.7644C84.1632 13.2407 84.5083 13.7999 84.7302 14.4089C84.9522 15.0179 85.0468 15.6642 85.0082 16.3096L85.0113 16.2998ZM85.3907 8.49764C83.8958 7.65359 82.1965 7.21645 80.4701 7.23171C80.0216 7.23276 79.5732 7.25796 79.1274 7.30713C76.5059 7.5892 74.3982 8.65833 72.8609 10.4851C71.4175 12.2003 70.7932 14.2927 70.9545 16.8737C71.0148 18.6612 71.6688 20.3809 72.8174 21.7734C74.6632 23.9773 77.1809 25.03 80.7756 25.0858H80.856L81.3228 25.0267C81.9494 24.9584 82.5706 24.8488 83.1823 24.6988C85.0159 24.2512 86.6542 23.2394 87.8543 21.8128C89.0224 20.374 89.6818 18.6043 89.734 16.7688C89.8919 13.0071 88.4317 10.2096 85.3942 8.49764" fill="#0B0B0C"/>
</svg>
