<svg width="260" height="77" viewBox="0 0 260 77" fill="none" xmlns="http://www.w3.org/2000/svg">
<path d="M68.123 30.6354H87.2155V69.2006H101.198V30.6354H120.649V18.2976H68.123V30.6354Z" fill="#FBFBFB"/>
<path d="M63.6045 18.1929H49.496V69.2006H63.6045V18.1929Z" fill="#FBFBFB"/>
<path d="M0.373047 18.1929V69.2006H14.4816V18.1929H0.373047Z" fill="#FBFBFB"/>
<path d="M35.7556 18.1929L14.4816 69.2006H29.0263L49.4859 18.1929H35.7556Z" fill="#FBFBFB"/>
<path d="M177.267 18.1929L163.266 51.7696L149.264 18.1929H125.158V69.2006H139.266V27.5033L155.993 69.2006H170.538L187.265 27.5033V69.2006H201.373V18.1929H177.267Z" fill="#FBFBFB"/>
<path d="M56.5454 0.000328019C55.1818 0.0265846 53.8565 0.447681 52.7357 1.21077C51.615 1.97386 50.7488 3.04494 50.2458 4.2896C49.7429 5.53426 49.6255 6.89704 49.9086 8.20691C50.1916 9.5168 50.8624 10.7154 51.8368 11.6524C52.8113 12.5893 54.0459 13.2228 55.3856 13.4733C56.7254 13.7239 58.1107 13.5804 59.3677 13.0609C60.6247 12.5412 61.6975 11.6686 62.4512 10.5527C63.2049 9.43673 63.6061 8.12706 63.6045 6.78802C63.5841 4.96925 62.8291 3.23281 61.5055 1.96012C60.182 0.687428 58.398 -0.0174421 56.5454 0.000328019Z" fill="#FBFBFB"/>
<path d="M245.589 44.4119C245.405 52.2562 240.053 57.5207 232.286 57.5207H231.995C227.815 57.4445 224.373 56.1213 222.037 53.7128C219.699 51.3043 218.497 47.7438 218.574 43.517C218.484 41.7553 218.775 39.9947 219.428 38.3515C220.082 36.7085 221.084 35.2204 222.367 33.9857C223.651 32.7511 225.185 31.7979 226.872 31.1893C228.559 30.5808 230.358 30.3307 232.15 30.4557C233.936 30.3938 235.718 30.6894 237.385 31.3243C239.051 31.9593 240.57 32.9204 241.846 34.1494C243.139 35.532 244.136 37.1552 244.777 38.923C245.418 40.6908 245.691 42.567 245.58 44.4404L245.589 44.4119ZM246.685 21.764C242.366 19.3139 237.457 18.045 232.47 18.0893C231.174 18.0923 229.879 18.1655 228.591 18.3082C221.018 19.127 214.929 22.2304 210.488 27.533C206.318 32.5119 204.514 38.5857 204.98 46.0778C205.154 51.2664 207.044 56.2585 210.362 60.3005C215.694 66.6979 222.968 69.7538 233.352 69.9156H233.585L234.933 69.7443C236.743 69.546 238.538 69.2279 240.305 68.7923C245.602 67.493 250.335 64.556 253.802 60.4148C257.176 56.2385 259.081 51.1015 259.232 45.7732C259.688 34.8538 255.47 26.7334 246.695 21.764" fill="#FBFBFB"/>
</svg>
